ply
format ascii 1.0
element vertex 992
property float x
property float y
property float z
property uchar red
property uchar green
property uchar blue
end_header
46.863055 -36.812486 117.611285 206 100 48
64.627234 22.571082 -118.297769 206 100 48
47.297668 -26.209766 119.546811 206 100 48
15.936188 -20.056499 146.154491 206 100 48
44.046620 -35.994879 112.634744 206 100 48
46.778556 -32.543863 119.699230 206 100 48
9.589505 -36.304799 158.606004 206 100 48
60.209538 16.892313 -111.266725 206 100 48
10.186827 -12.437162 171.009362 206 100 48
65.523189 23.760313 -121.117751 206 100 48
9.140640 -36.498067 155.831343 206 100 48
61.095051 16.564657 -113.073866 206 100 48
66.525396 27.639476 -123.329197 206 100 48
68.991744 32.686027 -128.011695 206 100 48
62.982082 11.711145 -116.909360 206 100 48
14.773416 19.992154 138.647084 206 100 48
43.342212 -30.582525 114.651568 206 100 48
51.043559 -3.568800 -94.995540 206 100 48
63.884222 16.379383 -118.978431 206 100 48
65.867354 25.020449 -122.876930 206 100 48
2.931960 7.547913 27.608057 206 100 48
-24.918116 11.869975 46.602613 206 100 48
6.441494 -35.795791 113.184610 206 100 48
64.759879 26.265235 -121.596757 206 100 48
2.934015 11.266702 53.439613 206 100 48
2.931960 7.547913 27.608057 206 100 48
41.180697 -36.160402 113.134677 206 100 48
8.728724 -35.736896 159.755461 206 100 48
8.728724 -35.736896 159.755461 206 100 48
39.781625 -35.178617 112.455958 206 100 48
14.869176 21.471056 144.081454 206 100 48
38.879429 -35.383917 112.946166 206 100 48
9.643380 -0.643145 179.430128 206 100 48
-15.645466 37.895814 -153.989008 206 100 48
63.548115 7.939665 -122.439824 206 100 48
74.769140 15.133821 -145.437485 206 100 48
14.030135 21.918798 146.969519 206 100 48
106.635588 1.742725 -209.393800 206 100 48
13.931885 -35.010340 147.698311 206 100 48
13.931885 -35.010340 147.698311 206 100 48
112.911326 18.771899 -222.251741 206 100 48
109.794180 26.510818 -217.730348 206 100 48
35.453609 -24.464416 113.361402 206 100 48
7.823213 -36.658896 163.045635 206 100 48
34.731959 -27.040649 111.438729 206 100 48
115.876361 18.463264 -231.868412 206 100 48
33.877401 -34.264494 109.008019 206 100 48
116.275936 25.440031 -232.945275 206 100 48
13.621671 21.882029 150.971969 206 100 48
114.561312 27.545481 -230.863967 206 100 48
13.415876 22.552804 150.867012 206 100 48
97.809909 8.914091 -198.271963 206 100 48
123.873348 31.440906 -251.483024 206 100 48
7.193741 28.708018 167.341873 206 100 48
7.193741 28.708018 167.341873 206 100 48
29.673243 8.600684 96.476052 206 100 48
118.489257 37.165663 -242.786220 206 100 48
118.489257 37.165663 -242.786220 206 100 48
33.745096 -24.417767 109.561973 206 100 48
33.515524 -24.935740 109.082597 206 100 48
32.293092 -34.693381 105.253308 206 100 48
125.370688 32.025461 -258.285836 206 100 48
32.753358 -28.179116 107.191735 206 100 48
123.464934 32.609146 -254.530926 206 100 48
48.450332 -51.084622 158.821750 206 100 48
32.404109 -25.107561 110.026205 206 100 48
30.150686 -33.315092 106.122220 206 100 48
31.382925 -24.970177 110.797812 206 100 48
30.084257 -27.142757 106.412246 206 100 48
29.550823 -28.845435 106.149302 206 100 48
10.242999 -11.302737 37.362029 206 100 48
10.242999 -11.302737 37.362029 206 100 48
15.245896 12.227729 57.231622 206 100 48
29.409185 -27.295283 110.879240 206 100 48
11.136272 57.668749 274.336014 206 100 48
126.751988 25.182290 -266.613556 206 100 48
29.831519 -26.582340 114.111667 206 100 48
119.255689 29.002119 -251.513600 206 100 48
30.514591 -23.664968 117.895987 206 100 48
118.935325 18.092334 -252.495896 206 100 48
104.068828 -2.013379 -221.022924 206 100 48
128.505579 42.010216 -273.717323 206 100 48
31.176153 -24.203055 120.523717 206 100 48
29.270412 -27.460837 113.367014 206 100 48
28.090002 -32.898664 109.128760 206 100 48
123.054950 24.226436 -264.217042 206 100 48
7.371498 -9.905010 181.878924 206 100 48
131.890252 33.957170 -284.209424 205 100 49
131.890252 33.957170 -284.209424 205 100 49
28.090002 -32.898664 109.128760 206 100 48
28.331279 -27.415343 110.290348 206 100 48
28.388343 -24.395625 117.177077 206 100 48
27.118382 -29.234677 112.797167 206 100 48
117.033608 6.410355 -253.737757 206 100 48
103.305153 -4.102844 -224.352903 206 100 48
26.934388 -33.167500 112.140829 206 100 48
25.109919 15.843122 107.244255 206 100 48
27.438362 -24.272070 118.115935 206 100 48
24.740613 9.890633 107.090991 206 100 48
27.395379 -25.043844 118.652791 206 100 48
26.742074 -27.760710 115.976941 206 100 48
6.952984 -41.290251 188.462151 206 100 48
-19.440294 11.530967 42.704246 206 100 48
12.404964 -35.714010 153.624355 206 100 48
27.858392 -10.220776 121.243901 206 100 48
26.976056 -10.770400 117.405041 206 100 48
25.684862 13.840609 112.118573 206 100 48
28.698211 -13.522364 125.284113 206 100 48
100.904425 -4.779189 -223.787446 206 100 48
13.117235 -2.117737 170.109923 206 100 48
27.662420 -3.777815 121.383107 206 100 48
28.022583 -21.886055 125.201022 206 100 48
28.360553 -28.383810 127.265222 206 100 48
25.831902 -33.602977 115.865978 206 100 48
106.131810 -11.742560 -237.623066 206 100 48
25.831902 -33.602977 115.865978 206 100 48
27.594920 -0.025341 124.833792 206 100 48
27.084060 -11.024239 122.902462 206 100 48
27.974384 -28.616214 131.829899 206 100 48
27.974384 -28.616214 131.829899 206 100 48
26.274035 -5.485973 124.817492 206 100 48
25.570789 -32.751277 121.745114 206 100 48
25.661435 -9.847342 123.926023 206 100 48
25.661435 -9.847342 123.926023 206 100 48
23.987146 -33.066325 116.258457 206 100 48
25.357853 13.126026 124.538082 206 100 48
25.454286 14.941451 127.286261 206 100 48
108.972690 -10.750422 -246.435636 206 100 48
24.806419 -33.888800 123.684288 206 100 48
147.053715 43.198523 -333.891297 205 100 49
147.053715 43.198523 -333.891297 205 100 49
12.091489 -6.921571 161.910817 206 100 48
83.085752 -30.452594 -189.156758 206 100 48
25.541274 -3.982937 128.183122 206 100 48
11.319522 -35.833516 153.482458 206 100 48
26.018195 -22.262937 130.857558 206 100 48
-18.632572 11.544153 42.599321 206 100 48
26.018195 -22.262937 130.857558 206 100 48
23.785476 16.658097 120.740976 206 100 48
120.331334 15.357680 -277.060419 206 100 48
165.362333 50.288240 -381.067326 205 100 49
165.362333 50.288240 -381.067326 205 100 49
23.785476 16.658097 120.740976 206 100 48
23.349720 -33.695399 118.733779 206 100 48
25.499181 -8.221368 132.196552 206 100 48
25.814941 15.838796 134.637923 206 100 48
156.740767 45.971238 -364.238803 205 100 49
21.436351 -31.224869 111.771121 206 100 48
162.304461 43.861821 -377.441398 205 100 49
21.436351 -31.224869 111.771121 206 100 48
26.854348 -39.864121 140.084782 206 100 48
24.680414 -8.896188 130.229192 206 100 48
128.474741 15.710311 -300.762781 205 100 49
169.874010 55.766213 -398.051433 205 100 49
3.538470 10.816475 51.250236 206 100 48
170.749998 62.327199 -400.863919 205 100 49
3.538470 10.816475 51.250236 206 100 48
138.836237 6.249234 -327.425072 205 100 49
26.918369 6.654944 142.217401 206 100 48
23.556081 -33.878365 124.539758 206 100 48
22.689215 -34.753530 120.388026 206 100 48
5.660381 -57.761195 172.157072 206 100 48
177.038801 60.171262 -420.517072 205 100 49
170.060808 39.275305 -404.020327 205 100 49
5.660381 -57.761195 172.157072 206 100 48
172.177997 45.447333 -410.828626 205 100 49
29.797008 -1.714026 160.262187 206 100 48
131.598253 5.881406 -314.250023 205 100 49
169.742648 62.320563 -405.730288 205 100 49
185.660194 54.600705 -445.860765 205 100 49
194.131077 75.516231 -469.540388 205 100 49
26.076148 -6.677245 140.207368 206 100 48
167.467071 29.800040 -409.128106 205 100 49
26.076148 -6.677245 140.207368 206 100 48
10.521023 26.914010 157.407763 206 100 48
10.521023 26.914010 157.407763 206 100 48
208.465516 96.428690 -511.597561 205 100 49
23.069564 10.677111 345.492996 206 100 48
9.849203 -34.929577 147.356785 206 100 48
5.052147 29.579255 185.570489 206 100 48
0.725069 -0.829895 4.228725 206 100 48
23.072912 -33.773648 126.646915 206 100 48
-6.481244 -2.715665 15.902702 206 100 48
22.039969 18.015978 122.937530 206 100 48
22.039969 18.015978 122.937530 206 100 48
22.039969 18.015978 122.937530 206 100 48
10.502368 -16.676211 166.165403 206 100 48
1.776490 7.117749 28.468524 206 100 48
21.922426 16.566091 122.635124 206 100 48
21.369360 -35.167641 119.696854 206 100 48
10.492304 -15.359287 169.715650 206 100 48
20.571956 -34.501726 115.285220 206 100 48
-17.983542 8.550402 45.542372 206 100 48
4.022294 28.599586 168.440777 206 100 48
22.753104 -10.630927 128.407799 206 100 48
21.962292 -33.717022 126.164968 206 100 48
21.122466 18.391655 122.119269 206 100 48
21.122466 18.391655 122.119269 206 100 48
-4.809124 -38.685640 185.294467 206 100 48
21.608542 17.680726 125.498149 206 100 48
21.608542 17.680726 125.498149 206 100 48
-4.926954 -34.604455 186.844884 206 100 48
-5.140470 -55.750591 200.864057 206 100 48
23.257212 -24.705485 137.385437 206 100 48
219.304760 92.337933 -564.949008 205 100 49
219.304760 92.337933 -564.949008 205 100 49
20.961109 18.485174 125.633943 206 100 48
20.961109 18.485174 125.633943 206 100 48
4.067877 -57.421372 179.080882 206 100 48
21.562067 -33.759843 129.101796 206 100 48
-17.534629 11.217782 45.697744 206 100 48
21.562067 -33.759843 129.101796 206 100 48
7.555617 10.685437 46.577964 206 100 48
7.555617 10.685437 46.577964 206 100 48
20.090331 18.889123 124.926264 206 100 48
20.090331 18.889123 124.926264 206 100 48
-6.198762 -35.053060 207.567279 206 100 48
7.877937 7.011653 49.279181 206 100 48
3.834276 15.584264 190.570057 206 100 48
-5.882827 -38.349219 188.400437 206 100 48
3.461038 -51.132145 168.955836 206 100 48
19.594871 18.670874 126.563158 206 100 48
19.594871 18.670874 126.563158 206 100 48
19.776607 17.533169 128.383875 206 100 48
19.776607 17.533169 128.383875 206 100 48
3.645586 -53.373912 181.086862 206 100 48
120.637683 -17.976499 -324.661187 205 100 49
-6.903838 -38.699106 212.128779 206 100 48
7.121503 10.752786 46.974117 206 100 48
-0.700917 -1.285140 29.244938 206 100 48
-30.642528 -30.996455 -205.711615 206 100 48
150.576905 29.068726 -411.781647 205 100 49
7.160692 10.459082 49.583337 206 100 48
7.537916 7.820599 52.609153 206 100 48
-32.676563 -33.502683 -227.767542 206 100 48
-32.676563 -33.502683 -227.767542 206 100 48
145.408742 82.083906 -400.362364 205 100 49
-4.605494 -26.900029 199.720196 206 100 48
3.006419 -33.417779 166.992715 206 100 48
-15.842447 8.365651 44.271313 206 100 48
-15.842447 8.365651 44.271313 206 100 48
19.155605 18.424162 134.253297 206 100 48
-4.605494 -26.900029 199.720196 206 100 48
19.155605 18.424162 134.253297 206 100 48
6.272883 10.130797 44.101646 206 100 48
-30.204024 -33.119808 -219.630803 206 100 48
-7.808074 -40.191556 217.284470 206 100 48
17.987948 18.064721 131.018862 206 100 48
18.081703 18.837074 132.053589 206 100 48
-7.187585 -39.332857 191.933717 206 100 48
18.081703 18.837074 132.053589 206 100 48
2.607568 -35.830914 163.319541 206 100 48
2.607568 -35.830914 163.319541 206 100 48
223.196868 106.129226 -636.786904 205 100 49
2.832533 -5.053134 21.056941 206 100 48
-8.838091 -54.325479 226.725905 206 100 48
-7.347319 -39.239146 187.132025 206 100 48
-9.320495 -70.365490 222.488047 206 100 48
-8.481894 -39.873002 199.424330 206 100 48
-8.481894 -39.873002 199.424330 206 100 48
137.925353 -4.103185 -398.385271 205 100 49
-9.542567 -40.876557 222.293075 206 100 48
17.359428 19.401283 130.808312 206 100 48
17.359428 19.401283 130.808312 206 100 48
17.495184 18.246688 132.430524 206 100 48
128.335615 -13.576659 -374.640332 205 100 49
145.972719 -0.668712 -426.577910 205 100 49
17.495184 18.246688 132.430524 206 100 48
17.997077 -35.086480 139.310269 206 100 48
227.628823 130.708796 -669.360906 205 100 49
-14.823392 8.071724 43.548157 206 100 48
-11.489804 -37.002641 259.522631 206 100 48
172.250967 25.255455 -510.044385 205 100 49
17.042242 19.298992 134.866801 206 100 48
16.641594 20.207169 135.931427 206 100 48
16.641594 20.207169 135.931427 206 100 48
16.205787 18.356512 132.857404 206 100 48
121.590677 71.323426 -363.583254 205 100 49
17.265383 -34.695541 140.797245 206 100 48
17.265383 -34.695541 140.797245 206 100 48
16.202761 21.089161 138.851617 206 100 48
-9.004246 -40.671465 196.133839 206 100 48
-14.182145 11.371582 43.365007 206 100 48
16.074085 19.834933 138.189038 206 100 48
16.285184 -35.013124 141.703915 206 100 48
23.115218 24.416144 202.553072 206 100 48
283.554212 77.889003 -874.790826 205 100 49
164.879247 -19.214490 -508.601966 205 100 49
15.583132 20.548492 137.924396 206 100 48
-2.287797 -57.295056 188.404113 206 100 48
276.917127 97.874376 -861.641233 205 100 49
-0.378930 1.128159 30.175762 206 100 48
-2046.770768 -239.976370 6392.802002 215 100 39
167.000574 -15.563659 -521.702243 205 100 49
-2.576289 -37.949606 178.554086 206 100 48
138.070594 -40.027428 -432.544033 205 100 49
-10.604777 -42.854725 224.823054 206 100 48
375.366535 107.630800 -1181.295060 204 100 50
-0.048131 0.782342 -4.399318 206 100 48
-57.978073 -62.051811 426.295346 206 100 48
45.458830 71.065597 -333.935715 205 100 49
96.838228 75.685193 -309.921669 205 100 49
-0.800903 0.024200 5.671334 206 100 48
-4.391792 7.544889 31.863684 206 100 48
286.457251 85.608599 -919.806626 205 100 49
159.684535 -6.996917 -512.749280 205 100 49
-15.090281 6.682850 48.480199 206 100 48
154.391122 -26.815947 -496.438919 205 100 49
46.830301 72.326459 -335.107999 205 100 49
195.193477 -21.734963 -629.787411 205 100 49
200.841128 15.231161 -649.480549 205 100 49
-51.723070 -81.191738 428.327077 206 100 48
-11.681166 -44.010419 237.873271 206 100 48
-9.170401 -37.479656 186.568105 206 100 48
99.311676 79.920226 -324.194584 205 100 49
154.499073 -46.251909 -504.330246 205 100 49
-119.237132 -196.057971 997.687534 207 100 47
-8.901320 -31.427766 176.318859 206 100 48
-119.237132 -196.057971 997.687534 207 100 47
-67.227450 -66.049907 463.105602 207 100 47
100.199038 86.187321 -331.158447 205 100 49
215.147267 8.856845 -710.756075 205 100 49
-10.483409 -67.610811 207.959839 206 100 48
-68.380012 -65.451325 455.655079 207 100 47
-46.385202 -69.154024 395.154206 206 100 48
385.344442 167.298439 -1280.247765 204 100 50
55.496550 90.104722 -361.669527 205 100 49
-73.308704 -66.454727 475.210541 207 100 47
327.997882 132.707076 -1096.402203 204 100 50
-1.695626 -62.009953 185.678292 206 100 48
90.414056 62.077354 -303.639422 205 100 49
-7.683422 11.032052 49.043244 206 100 48
221.863584 15.503255 -749.841097 205 100 49
402.740043 171.981852 -1363.389653 204 100 50
-12.194783 -44.091737 233.614747 206 100 48
198.670016 105.575070 -678.172731 205 100 49
-10.481771 -40.298074 196.822759 206 100 48
228.209644 -11.141784 -781.528146 205 100 49
964.628169 329.272300 -3311.936536 201 100 53
-0.886590 -0.518838 3.261337 206 100 48
3.237629 0.940142 -11.236033 206 100 48
-12.929124 -43.198937 239.366179 206 100 48
2.081528 -26.543913 184.069476 206 100 48
372.407763 161.158625 -1290.575343 204 100 50
-12.929124 -43.198937 239.366179 206 100 48
54.575544 71.602091 -347.963967 205 100 49
92.501363 73.728882 -322.494640 205 100 49
-1.774086 -0.717195 32.143881 206 100 48
-14.680585 -44.703455 262.357666 206 100 48
693.530801 247.060259 -2436.572193 202 100 52
-1067.403357 -588.023806 3753.403202 211 100 43
-78.834360 -69.553557 495.253831 207 100 47
96.363774 84.132431 -340.668023 205 100 49
96.363774 84.132431 -340.668023 205 100 49
-8.417004 9.136057 52.305053 206 100 48
-14.680585 -44.703455 262.357666 206 100 48
4.381002 7.834743 -39.255437 206 100 48
96.739243 88.145519 -344.912129 205 100 49
96.739243 88.145519 -344.912129 205 100 49
-1.290927 -51.432605 186.693919 206 100 48
-5.202868 8.303946 31.529180 206 100 48
89.885515 67.204562 -322.200323 205 100 49
89.885515 67.204562 -322.200323 205 100 49
87.159171 62.068803 -312.422238 205 100 49
-1.205840 -29.934097 182.538223 206 100 48
-1.205840 -29.934097 182.538223 206 100 48
-1.060970 0.029965 9.347145 206 100 48
64.953270 104.712472 -391.274349 205 100 49
-92.914182 -76.290575 553.030990 207 100 47
-15.199494 -44.923664 248.223875 206 100 48
656.831283 298.202174 -2382.651761 203 100 51
72.137393 86.532758 -426.987927 205 100 49
67.750354 106.373965 -400.508377 205 100 49
61.079087 79.818054 -360.788678 205 100 49
67.115181 107.391769 -396.147126 205 100 49
-16.525435 -45.497377 267.129530 206 100 48
-40.929313 -75.807388 388.600349 206 100 48
88.666296 74.567765 -325.569210 205 100 49
94.464266 83.148023 -348.616995 205 100 49
104.215332 62.761718 -384.835835 205 100 49
1807.336831 706.913210 -6678.902747 196 100 58
56.422485 69.148954 -327.849245 205 100 49
107.229890 115.688902 -397.735024 205 100 49
97.036388 88.903329 -360.023341 205 100 49
89.683104 71.310035 -332.885966 205 100 49
60.335265 77.663809 -349.755764 205 100 49
1.106615 -57.202302 185.232177 206 100 48
94.305245 90.046794 -352.417645 205 100 49
96.581366 83.994350 -360.827189 205 100 49
-5.601128 8.412042 31.753447 206 100 48
64.791141 88.432684 -368.680394 205 100 49
92.422692 91.478962 -347.568290 205 100 49
-12.232213 7.442909 45.894623 206 100 48
-12.232213 7.442909 45.894623 206 100 48
-12.346118 7.066690 46.373343 206 100 48
-12.346118 7.066690 46.373343 206 100 48
-103.987042 -79.545221 588.592216 207 100 47
-14.849563 7.348961 55.871688 206 100 48
94.561850 89.178941 -356.766185 205 100 49
-18.714741 -49.269019 281.025931 206 100 48
62.518272 73.953801 -354.282311 205 100 49
-2651.624344 -1088.017189 10065.742790 220 100 34
62.518272 73.953801 -354.282311 205 100 49
-18.498853 -52.370075 269.373941 206 100 48
-17.863753 -55.402245 259.972129 206 100 48
65.706010 83.216659 -368.737500 205 100 49
65.706010 83.216659 -368.737500 205 100 49
1.106615 -57.202302 185.232177 206 100 48
66.435377 86.741663 -369.356938 205 100 49
-169.708692 -65.337823 935.050042 207 100 47
67.025665 89.778003 -369.205221 205 100 49
-20.194792 -47.227353 280.686072 206 100 48
66.302273 73.531144 -364.539628 205 100 49
-15.985533 -42.680598 221.997784 206 100 48
344.144942 -35.144061 -1322.026277 204 100 50
344.144942 -35.144061 -1322.026277 204 100 50
-11.936494 7.368163 45.842977 206 100 48
-11.936494 7.368163 45.842977 206 100 48
-23.351487 -64.898835 315.215269 206 100 48
68.051621 81.530674 -370.522845 205 100 49
18.972827 24.949831 -102.291347 206 100 48
99.872421 91.623474 -388.105885 205 100 49
67.450282 83.819204 -364.748971 205 100 49
331.953008 -28.553044 -1291.718833 204 100 50
-0.669154 -40.461737 182.362975 206 100 48
-24.222632 -66.780763 317.260657 206 100 48
-6.116266 8.749770 32.542561 206 100 48
-1327.914773 -571.990931 5183.280977 213 100 41
-6.116266 8.749770 32.542561 206 100 48
94.856310 94.164834 -371.884890 205 100 49
69.485239 96.844900 -371.164181 205 100 49
-8.990188 8.621296 47.635005 206 100 48
63.792199 75.506191 -339.404983 205 100 49
-35.690477 -72.588164 366.187720 206 100 48
1223.366842 353.574054 -4840.387418 199 100 55
93.122479 99.326254 -369.526259 205 100 49
77.806226 104.887740 -409.833583 205 100 49
67.851248 85.435469 -357.137341 205 100 49
76.051898 115.104587 -398.502471 205 100 49
-47.545859 -119.941978 617.712609 207 100 47
-0.680163 -36.493379 198.970434 206 100 48
0.361155 -37.097360 168.612137 206 100 48
91.856172 88.870155 -369.232456 205 100 49
73.074225 100.254641 -380.024324 205 100 49
-111.448073 -90.588509 578.175748 207 100 47
91.901850 95.833105 -372.260061 205 100 49
69.566189 92.129299 -359.446628 205 100 49
9.075116 7.750417 -36.974852 206 100 48
84.489453 74.270734 -344.009120 205 100 49
87.392949 83.699571 -356.895942 205 100 49
-164.385214 -75.784516 846.326998 207 100 47
89.030090 88.693016 -364.399272 205 100 49
89.030090 88.693016 -364.399272 205 100 49
89.452162 92.454045 -367.250496 205 100 49
89.452162 92.454045 -367.250496 205 100 49
-22.885906 -48.772308 297.001277 206 100 48
92.000415 98.191441 -378.574183 205 100 49
92.000415 98.191441 -378.574183 205 100 49
-0.459769 -0.421309 2.587221 206 100 48
18.250739 8.995446 -75.834209 206 100 48
-9.245633 8.476181 47.320450 206 100 48
70.356996 87.930722 -359.435091 205 100 49
82.271559 76.810238 -342.777688 205 100 49
80.934369 71.764989 -337.229054 205 100 49
86.255996 87.223518 -359.786472 205 100 49
-732.031663 -466.677774 3053.357099 210 100 44
69.790727 75.533583 -355.101806 205 100 49
69.790727 75.533583 -355.101806 205 100 49
89.226551 97.163378 -374.238681 205 100 49
-18.200168 -44.310465 236.087473 206 100 48
-18.200168 -44.310465 236.087473 206 100 48
69.288575 77.996754 -351.806188 205 100 49
-410.192931 -256.651695 1731.349367 208 100 46
87.028574 115.924230 -369.599138 205 100 49
-3.659869 -4.956757 37.861959 206 100 48
73.697413 86.200543 -372.996176 205 100 49
73.697413 86.200543 -372.996176 205 100 49
-103.796250 -81.614320 522.439150 207 100 47
1437.439632 -856.856998 -7204.682276 196 100 58
-201.106546 -70.224018 1008.692975 207 100 47
73.531670 91.415282 -368.471631 205 100 49
612.360945 -59.029748 -2613.515624 202 100 52
-369.051230 -185.377826 1579.731855 208 100 46
-517.123085 -343.539813 2218.141595 209 100 45
-10.733905 6.626461 45.927149 206 100 48
84.705165 118.842416 -366.877757 205 100 49
73.377848 80.723500 -364.624761 205 100 49
-8.568003 10.436096 42.297355 206 100 48
78.417393 102.206575 -387.497631 205 100 49
2880.410827 -88.911958 -12546.396748 188 100 66
1763.645795 -551.813402 -7686.920365 195 100 59
-0.275956 -28.544958 186.404299 206 100 48
-27.577236 -67.811686 335.218991 206 100 48
-0.397282 -26.388379 202.659029 206 100 48
430.252592 -199.100018 -1886.123806 203 100 51
79.689828 94.623034 -393.197360 205 100 49
64.973197 80.476931 -286.976046 205 100 49
-7730.654772 -7991.575131 34435.566120 255 100 0
-445.895548 2.242065 2187.248363 209 100 45
-386.544649 -400.134786 1725.932155 208 100 46
-280.493755 -148.739017 1241.749956 208 100 46
89.163430 95.416420 -395.531915 205 100 49
-0.486572 -38.002289 175.586101 206 100 48
32816.641899 -920.367446 -146215.194624 0 100 255
88.000079 127.496643 -394.705028 205 100 49
88.000079 127.496643 -394.705028 205 100 49
-2.740731 -3.009526 30.690962 206 100 48
438.949583 -116.977800 -1964.380457 203 100 51
438.949583 -116.977800 -1964.380457 203 100 51
-9.938420 10.323035 47.635909 206 100 48
-28.046437 -68.307501 329.937921 206 100 48
-10.612704 9.818461 47.518809 206 100 48
-10.612704 9.818461 47.518809 206 100 48
-213.486342 -159.323714 1023.300800 207 100 47
-6.651720 9.129194 31.697591 206 100 48
-175.858644 -104.583999 837.399183 207 100 47
711.231705 -299.226864 -3358.589366 201 100 53
-2.076050 7.540596 23.639830 206 100 48
85.528752 99.939217 -386.026038 205 100 49
-0.397282 -26.388379 202.659029 206 100 48
74.028962 73.313431 -348.592932 205 100 49
81.385565 92.393471 -367.657863 205 100 49
79.028649 83.729931 -357.702226 205 100 49
79.028649 83.729931 -357.702226 205 100 49
81.994925 83.446676 -371.501644 205 100 49
81.994925 83.446676 -371.501644 205 100 49
78.362173 76.508677 -355.091498 205 100 49
78.362173 76.508677 -355.091498 205 100 49
75.217259 70.514432 -340.834066 205 100 49
75.217259 70.514432 -340.834066 205 100 49
1812.663044 -896.020931 -8480.012660 194 100 60
75.868729 78.116652 -351.762062 205 100 49
-545.746595 47.229677 2518.254426 209 100 45
75.634108 83.967662 -349.426462 205 100 49
-313.012552 -231.177619 1434.506135 208 100 46
-29.736634 -67.429364 345.529059 206 100 48
1523.223133 -284.411442 -6982.220671 196 100 58
48.414731 -22.575050 121.432664 206 100 48
46.098099 -17.441246 114.612708 206 100 48
45.922790 -15.390141 113.727214 206 100 48
44.506071 -12.945432 109.775524 206 100 48
46.471265 -9.586161 113.918514 206 100 48
44.864080 -6.847206 109.766960 206 100 48
44.864080 -6.847206 109.766960 206 100 48
45.551948 -4.611061 110.575092 206 100 48
40.060896 9.296610 96.730488 206 100 48
45.124067 -0.493636 108.769556 206 100 48
48.258241 -6.786149 115.190397 206 100 48
54.052516 -39.555356 126.421065 206 100 48
52.110230 5.668330 114.535683 206 100 48
45.464742 7.567247 99.325191 206 100 48
-0.401030 -30.613605 184.839165 206 100 48
138.591493 8.101579 -364.616294 205 100 49
-102.443551 -51.285688 671.081626 207 100 47
73.705965 77.291594 -366.792927 205 100 49
49.428019 -10.020983 -92.267025 206 100 48
77.195907 103.927689 -386.748252 205 100 49
-377.870524 20.276086 1894.687238 209 100 45
144.687209 280.364949 -1211.440015 204 100 50
48.049172 73.156828 -330.749916 205 100 49
116.268501 -16.323113 -299.278126 205 100 49
35.460627 -34.296095 111.337771 206 100 48
35.677172 -24.859429 112.681686 206 100 48
-1.383386 5.334613 27.131312 206 100 48
112.413239 13.989012 -223.931745 206 100 48
2.494655 10.782382 53.079917 206 100 48
123.665936 33.757563 -247.021545 206 100 48
64.809553 76.211239 -335.469077 205 100 49
1.388959 6.046483 29.615827 206 100 48
333.992344 -33.021750 -1347.816024 204 100 50
57.630005 66.319035 -233.291917 206 100 48
93.989173 94.424315 -379.437738 205 100 49
88.835083 -14.491546 -183.221598 206 100 48
75.109783 111.417970 -392.242214 205 100 49
4.288158 -24.652661 173.165167 206 100 48
158.774253 28.460533 -397.312865 205 100 49
116.156355 20.464868 -242.909768 206 100 48
72.113592 95.134185 -383.691889 205 100 49
95.015628 97.949088 -374.824502 205 100 49
203.416849 69.966414 -502.155369 205 100 49
90.066304 85.980333 -351.526135 205 100 49
19.235911 12.140214 76.542899 206 100 48
27.302371 0.556809 112.302933 206 100 48
24.232649 9.267517 101.922628 206 100 48
129.068683 0.732839 -308.075540 205 100 49
272.091891 -72.742348 -1057.213604 204 100 50
24.232649 9.267517 101.922628 206 100 48
58.861151 90.552226 -319.149539 205 100 49
2.487034 30.632699 198.166083 206 100 48
90.530951 72.269914 -349.222538 205 100 49
116.526082 -12.217117 -277.317902 206 100 48
62.321257 72.395312 -341.618496 205 100 49
116.526082 -12.217117 -277.317902 206 100 48
74.272416 131.964836 -593.894613 205 100 49
0.962276 6.167398 30.213212 206 100 48
11.560770 10.769547 61.557787 206 100 48
13.676140 -6.919751 177.251127 206 100 48
27.375762 -11.804792 121.856042 206 100 48
11.471994 -23.491531 167.953096 206 100 48
93.539863 62.957095 -289.489400 205 100 49
26.419521 -31.414532 118.227184 206 100 48
-2.089649 -1.539489 11.487422 206 100 48
228.406881 93.312083 -531.215453 205 100 49
11.333394 10.780835 59.328629 206 100 48
27.586259 -24.818519 123.607016 206 100 48
27.586259 -24.818519 123.607016 206 100 48
-2.057246 -3.488476 30.678818 206 100 48
93.787706 -26.309335 -209.726152 206 100 48
154.841766 -7.547566 -473.970209 205 100 49
108.158933 -12.929439 -242.394585 206 100 48
180.483955 75.584233 -545.658284 205 100 49
27.934345 -27.524892 127.920441 206 100 48
25.708267 -25.840396 117.977002 206 100 48
25.485255 14.846205 119.513944 206 100 48
25.713447 -11.309358 121.727234 206 100 48
25.713447 -11.309358 121.727234 206 100 48
26.088208 -8.271466 127.096636 206 100 48
90.193842 103.197082 -399.340495 205 100 49
-690.649940 49.359452 3385.536581 211 100 43
-690.649940 49.359452 3385.536581 211 100 43
0.741855 -0.005303 1.365112 206 100 48
94.029328 97.518602 -340.464573 205 100 49
91.545334 74.163646 -330.029730 205 100 49
-31.899813 -67.226520 363.029823 206 100 48
-3.663452 -49.979567 186.809154 206 100 48
78.919841 112.507029 -379.268374 205 100 49
57.209869 7.317386 121.589313 206 100 48
181.502657 31.101602 -521.132419 205 100 49
69.440174 68.517502 -332.866312 205 100 49
-3.171519 -56.563171 188.556572 206 100 48
2.766552 -47.983393 169.824271 206 100 48
-31.899813 -67.226520 363.029823 206 100 48
63.675883 -34.448512 142.906754 206 100 48
153.537568 9.304247 -431.564346 205 100 49
56.077440 -32.606085 129.746313 206 100 48
59.223429 84.259534 -368.460706 205 100 49
45.417902 3.675701 108.324530 206 100 48
88.068574 105.812862 -396.939523 205 100 49
88.068574 105.812862 -396.939523 205 100 49
56.683078 78.202876 -356.131268 205 100 49
47.008149 -11.698095 115.606263 206 100 48
48.530491 -37.848612 119.972973 206 100 48
-218.823384 -152.820192 995.511319 207 100 47
0.310109 0.911859 19.572840 206 100 48
591.300841 -322.214461 -2724.614045 202 100 52
57.054107 88.004474 -361.770400 205 100 49
57.054107 88.004474 -361.770400 205 100 49
55.354397 73.711576 -351.119460 205 100 49
55.354397 73.711576 -351.119460 205 100 49
0.848900 0.656881 -2.359074 206 100 48
116.268501 -16.323113 -299.278126 205 100 49
46.054235 -37.296223 115.804952 206 100 48
240.491227 -2.542975 -837.106259 205 100 49
58.570530 11.114951 -107.312706 206 100 48
99.038449 94.530560 -343.577317 205 100 49
58.570530 11.114951 -107.312706 206 100 48
-17.053313 10.944654 45.843624 206 100 48
95.255971 73.231434 -325.375197 205 100 49
209.542838 92.236755 -561.921974 205 100 49
209.542838 92.236755 -561.921974 205 100 49
241.804100 103.229129 -644.989120 205 100 49
14.899562 21.318955 139.393141 206 100 48
45.602924 -31.815522 117.737342 206 100 48
3.544753 -30.568443 165.958409 206 100 48
169.858164 -10.619216 -568.239457 205 100 49
65.274897 74.477569 -322.208513 205 100 49
1215.947094 -152.321183 -5344.788164 198 100 56
75.641313 103.345244 -375.392834 205 100 49
-2.518026 0.193476 11.679285 206 100 48
76.769689 84.503401 -334.051213 205 100 49
76.769689 84.503401 -334.051213 205 100 49
44.056456 -3.702776 108.306574 206 100 48
44.140629 -7.947353 108.694282 206 100 48
51.290914 -38.768261 126.696339 206 100 48
83.059533 74.895342 -354.547426 205 100 49
83.999305 79.256887 -358.568615 205 100 49
82.950118 117.570446 -385.352619 205 100 49
6.572601 10.020310 45.510571 206 100 48
83.999305 79.256887 -358.568615 205 100 49
544.604386 49.130007 -2308.783431 203 100 51
95.240503 101.541513 -401.929618 205 100 49
46.910094 -16.661309 116.329543 206 100 48
83.662592 82.002973 -350.710852 205 100 49
84.960305 105.647769 -388.821383 205 100 49
-343.984671 -83.734582 1748.834088 208 100 46
85.562520 109.516088 -357.526534 205 100 49
74.505899 79.434511 -344.405460 205 100 49
33.019622 36.268707 -151.149929 206 100 48
78.171011 99.768441 -320.085877 205 100 49
534.349712 -6.906220 -2168.440693 203 100 51
-13.600540 -11.036189 55.000563 206 100 48
379.768579 -59.137015 -1533.895365 204 100 50
379.768579 -59.137015 -1533.895365 204 100 50
44.316101 -16.598680 111.946864 206 100 48
91.241517 84.495027 -364.971744 205 100 49
81.235401 56.731949 -324.265775 205 100 49
94.173456 98.248541 -374.683870 205 100 49
94.173456 98.248541 -374.683870 205 100 49
394.088817 -24.796530 -1560.182886 204 100 50
88.796243 86.358070 -350.331723 205 100 49
88.796243 86.358070 -350.331723 205 100 49
1521.376859 478.578418 -5980.316990 197 100 57
529.623448 103.770572 -2065.724783 203 100 51
553.306863 43.665491 -2153.809299 203 100 51
69.342717 100.639303 -371.962876 205 100 49
259.623047 -75.552562 -1009.523363 204 100 50
47.338166 -27.185247 119.762167 206 100 48
165.830591 33.599149 -447.827574 205 100 49
-1827.153177 -1111.344125 7099.100990 216 100 38
-23.032958 -67.086076 309.201313 206 100 48
68.655003 99.018369 -375.069553 205 100 49
86.816907 98.258633 -333.436497 205 100 49
285.741026 -19.142858 -1093.816667 204 100 50
-19.914161 -64.205360 285.214122 206 100 48
-18.104969 -58.568988 260.414796 206 100 48
10.860499 -1.760039 179.360972 206 100 48
2341.693182 1151.082849 -8948.608522 193 100 61
-8.452642 11.252263 47.244844 206 100 48
42.308134 -25.141062 108.845898 206 100 48
-183.924508 -154.695658 1040.070850 207 100 47
-2.036456 1.144052 29.838965 206 100 48
-18.087272 -45.818937 273.329969 206 100 48
-17.295210 9.617297 45.847593 206 100 48
56.898967 8.510722 -105.401146 206 100 48
137.530305 1.407641 -361.163186 205 100 49
-35.753483 -30.852704 206.931656 206 100 48
427.374154 63.719069 -1575.034067 204 100 50
142.889663 4.847771 -374.684711 205 100 49
-16.675377 -58.751774 266.769768 206 100 48
-14.898322 -51.376513 241.161216 206 100 48
142.889663 4.847771 -374.684711 205 100 49
88.998825 83.627598 -323.959986 205 100 49
144.649798 -2.035096 -378.992808 205 100 49
-3.438154 -60.554932 183.884521 206 100 48
-16.130839 -63.615816 272.838312 206 100 48
-3.349754 -59.372987 180.278998 206 100 48
-1.732355 1.263466 29.021946 206 100 48
95.689617 86.463259 -345.120831 205 100 49
98.792875 93.933168 -356.209533 205 100 49
62.768480 93.545487 -379.691943 205 100 49
62.768480 93.545487 -379.691943 205 100 49
22.714148 -23.510994 137.222845 206 100 48
-1.244836 -60.852772 191.838549 206 100 48
95.116947 82.010497 -340.068364 205 100 49
1.729565 -47.216572 173.382252 206 100 48
275.334437 21.094793 -981.802953 205 100 49
1.871467 -48.465487 186.464761 206 100 48
1.871467 -48.465487 186.464761 206 100 48
3.939562 -55.939388 176.673656 206 100 48
59.215021 16.055516 -110.681645 206 100 48
57.251655 80.887308 -358.712063 205 100 49
-4.789504 7.484716 29.863952 206 100 48
45.592639 -34.894730 125.422976 206 100 48
94.602634 74.139276 -334.001588 205 100 49
8.784576 -9.109867 162.303480 206 100 48
37.525005 -6.244752 110.242317 206 100 48
101.614489 81.908562 -349.051262 205 100 49
-5.265820 -61.940073 210.236019 206 100 48
9.366766 18.594882 180.341532 206 100 48
-1.567265 -1.968368 29.840127 206 100 48
37.443946 -12.543665 111.586079 206 100 48
184.470018 -17.869526 -617.215244 205 100 49
51.330208 71.834872 -332.451680 205 100 49
99.706135 83.525783 -333.297250 205 100 49
99.706135 83.525783 -333.297250 205 100 49
17.077358 -12.432359 174.608244 206 100 48
58.567809 85.523346 -359.254286 205 100 49
183.923863 90.348882 -610.467215 205 100 49
-112.757838 1.356859 745.065413 207 100 47
-112.757838 1.356859 745.065413 207 100 47
99.954286 79.962505 -330.443304 205 100 49
80.828414 -1.381876 -155.919840 206 100 48
-12.750173 10.982172 41.910314 206 100 48
-5.265820 -61.940073 210.236019 206 100 48
-14.930431 9.377863 48.218698 206 100 48
-14.930431 9.377863 48.218698 206 100 48
36.476920 -23.663196 114.100360 206 100 48
15.423170 18.452432 -112.094805 206 100 48
198.854336 96.269575 -638.940688 205 100 49
198.854336 96.269575 -638.940688 205 100 49
199.059646 107.957625 -638.107622 205 100 49
88.057300 -12.358282 -171.725578 206 100 48
149.602442 -20.167389 -469.945028 205 100 49
3.218651 10.720749 53.030256 206 100 48
92.681376 10.105134 -183.778452 206 100 48
92.875028 62.346257 -289.216272 205 100 49
-1.419593 -2.445079 30.055975 206 100 48
-39.133894 -51.864453 313.006028 206 100 48
3.218651 10.720749 53.030256 206 100 48
4.015952 -57.394739 169.956539 206 100 48
-2.530113 -51.202017 187.768769 206 100 48
35.210123 -29.844726 113.207768 206 100 48
5.201550 10.824950 47.196405 206 100 48
20.012961 17.833140 178.848574 206 100 48
15.735473 -36.862693 138.662190 206 100 48
2.673843 6.080756 23.537903 206 100 48
189.220085 83.860301 -584.998391 205 100 49
-1.444858 -2.759127 30.982377 206 100 48
141.661271 -3.301160 -434.028826 205 100 49
141.661271 -3.301160 -434.028826 205 100 49
4.074983 -48.499992 166.149975 206 100 48
15.873387 -35.163073 130.846459 206 100 48
148.464819 -5.341883 -448.150183 205 100 49
249.562107 93.044301 -749.730350 205 100 49
8.425644 17.040231 182.764158 206 100 48
137.602918 -21.141014 -410.142244 205 100 49
128.677718 29.658669 -263.697323 206 100 48
25.483561 -8.925963 126.962583 206 100 48
25.700124 -6.532055 127.115102 206 100 48
99.784307 -19.439492 -225.516438 206 100 48
34.323315 -30.029923 112.285258 206 100 48
25.660766 -25.442853 124.838554 206 100 48
25.660766 -25.442853 124.838554 206 100 48
23.781850 -25.212074 115.623764 206 100 48
11.095781 11.648642 62.490322 206 100 48
10.536820 -14.355077 170.743705 206 100 48
7.438208 20.844130 209.121750 206 100 48
26.207082 -16.187641 126.436578 206 100 48
31.966334 -28.976188 107.050566 206 100 48
32.451045 -32.009415 110.628270 206 100 48
25.555570 -27.456807 121.294593 206 100 48
11.721400 9.317668 55.749524 206 100 48
10.934582 18.462936 177.482965 206 100 48
-20.723766 9.321037 42.882200 206 100 48
12.499812 -24.083438 165.201366 206 100 48
1.184474 5.970714 16.415355 206 100 48
-19.918344 8.624204 45.662621 206 100 48
-20.723766 9.321037 42.882200 206 100 48
27.566516 -10.694889 128.230676 206 100 48
8.430756 -9.629801 201.762437 206 100 48
10.639818 -37.600038 149.561222 206 100 48
15.724821 11.904016 56.775857 206 100 48
26.148070 13.869518 120.014985 206 100 48
26.309017 -22.689071 120.229783 206 100 48
1.425980 5.934553 16.459254 206 100 48
28.020949 -20.763911 126.888500 206 100 48
28.422866 -23.751159 127.804639 206 100 48
28.422866 -23.751159 127.804639 206 100 48
12.499812 -24.083438 165.201366 206 100 48
24.944689 -18.858580 127.980020 206 100 48
28.738047 -25.099929 105.585627 206 100 48
12.370385 10.766008 55.671647 206 100 48
26.788342 -8.239087 120.162271 206 100 48
26.788342 -8.239087 120.162271 206 100 48
-19.378603 11.836485 43.136476 206 100 48
31.662643 -24.923552 117.344603 206 100 48
28.153192 -19.305367 124.065542 206 100 48
15.694201 9.067439 58.517549 206 100 48
27.903101 12.061678 122.755938 206 100 48
28.025060 -21.912043 122.697825 206 100 48
223.838954 100.490947 -558.804648 205 100 49
111.904636 28.076507 -235.136174 206 100 48
106.581277 0.261292 -224.171543 206 100 48
117.946169 21.079882 -250.344967 206 100 48
-19.661160 11.726356 42.757159 206 100 48
12.443446 -8.471601 152.204321 206 100 48
14.984449 10.207297 59.122152 206 100 48
116.529090 -14.874230 -284.776241 205 100 49
13.002173 11.963105 55.541365 206 100 48
26.177560 8.862302 111.490120 206 100 48
24.149479 -7.707080 132.098044 206 100 48
4.957208 -36.973527 168.424941 206 100 48
163.189082 23.507108 -389.246133 205 100 49
10.382667 -34.433752 152.967268 206 100 48
6.799488 8.289292 184.651314 206 100 48
27.577530 -25.764056 114.628840 206 100 48
28.537257 -25.245320 118.273883 206 100 48
13.438942 14.561076 165.218411 206 100 48
13.438942 14.561076 165.218411 206 100 48
27.836640 -0.611176 114.763651 206 100 48
23.893684 13.221140 98.102489 206 100 48
10.382667 -34.433752 152.967268 206 100 48
-2.657064 -2.027457 30.891001 206 100 48
99.954286 79.962505 -330.443304 205 100 49
143.258317 17.107758 -393.679486 205 100 49
53.516586 -39.211149 128.114168 206 100 48
139.127451 73.248012 -389.729976 205 100 49
19.491102 -43.658420 135.758908 206 100 48
43.886243 5.520691 104.133268 206 100 48
-253.478954 -202.459338 1204.271281 208 100 46
56.129295 -33.537253 129.862819 206 100 48
-4.238940 -44.266612 186.259750 206 100 48
60.113775 -36.079470 136.101933 206 100 48
46.945772 9.230165 105.911020 206 100 48
44.826041 14.093365 100.360129 206 100 48
65.013972 -20.218456 145.352311 206 100 48
-10.655522 10.250271 47.802340 206 100 48
95.189875 140.812489 -454.727344 205 100 49
49.031176 6.804704 108.369316 206 100 48
62.154238 -11.820276 137.151276 206 100 48
56.197995 -39.046975 122.722757 206 100 48
60.823461 -2.635979 132.148850 206 100 48
60.823461 -2.635979 132.148850 206 100 48
58.645363 5.860481 125.758627 206 100 48
58.645363 5.860481 125.758627 206 100 48
2.797597 30.251296 186.906947 206 100 48
19.803957 -23.600869 147.456209 206 100 48
60.169046 8.194371 126.356403 206 100 48
19.803957 -23.600869 147.456209 206 100 48
-2.559215 -1.388178 30.501411 206 100 48
138.863463 -7.547510 -400.820781 205 100 49
7.752374 -0.409443 15.413012 206 100 48
664.942655 -225.882662 -2957.780948 202 100 52
-0.458474 -60.812252 184.783576 206 100 48
-29.774905 -69.198489 327.984327 206 100 48
217.972025 113.411023 -647.057458 205 100 49
228.484512 68.800737 -680.634909 205 100 49
17.626611 -19.689990 141.056052 206 100 48
699.018942 -260.524844 -3073.785764 202 100 52
-39.191663 -67.225595 376.083255 206 100 48
84.640884 62.043936 -284.740798 205 100 49
-19.669582 11.453931 42.814654 206 100 48
2.344261 -45.049789 179.125476 206 100 48
11.809482 12.670584 57.868293 206 100 48
104.650981 -6.134842 -236.375131 206 100 48
3.908033 -49.310337 166.507373 206 100 48
135.248554 -27.864418 -435.752998 205 100 49
178.588254 -11.331891 -579.829135 205 100 49
171.583792 -24.700337 -558.687315 205 100 49
171.583792 -24.700337 -558.687315 205 100 49
13.145220 18.673398 157.648066 206 100 48
-104.951737 -110.032043 599.169394 207 100 47
13.401621 23.338168 160.967744 206 100 48
6.128938 26.703184 170.185245 206 100 48
99.631695 102.188199 -362.895993 205 100 49
6.128938 26.703184 170.185245 206 100 48
13.401621 23.338168 160.967744 206 100 48
-12.002441 -52.976923 235.017776 206 100 48
-16.351145 -23.315383 139.348090 206 100 48
837.783129 -197.941038 -3760.924975 201 100 53
35.587307 -26.517417 112.745620 206 100 48
52.047415 6.554182 114.756261 206 100 48
7.424348 -8.968946 27.672764 206 100 48
62.347586 19.650853 -114.518418 206 100 48
199.865598 0.482085 -696.216095 205 100 49
47.776842 9.946749 109.481339 206 100 48
171.048811 47.312164 -479.984283 205 100 49
47.776842 9.946749 109.481339 206 100 48
-8.489797 9.791184 53.230266 206 100 48
-9.159518 -28.404238 255.601758 206 100 48
-81.626502 -96.018716 511.946627 207 100 47
121.962953 -20.224939 -318.381092 205 100 49
2856.906122 -400.214268 -13348.938559 187 100 67
-17.467605 10.683178 45.576062 206 100 48
118.429286 -23.566081 -331.721531 205 100 49
-7.976679 -33.473079 229.294547 206 100 48
99.061122 101.191086 -431.352436 205 100 49
28.632470 -23.514216 112.915970 206 100 48
99.631695 102.188199 -362.895993 205 100 49
43.235941 -31.567128 114.222067 206 100 48
62.615437 94.155671 -369.317091 205 100 49
92.352781 90.517940 -340.099961 205 100 49
44.696789 -34.070823 116.830950 206 100 48
531.334325 59.498456 -2236.462958 203 100 51
24.044554 -23.691732 127.994010 206 100 48
99.061122 101.191086 -431.352436 205 100 49
27.871319 -16.349998 114.777215 206 100 48
28.734265 -17.060384 116.510054 206 100 48
55.020322 3.218496 -100.395256 206 100 48
74.346138 106.200307 -385.258020 205 100 49
74.346138 106.200307 -385.258020 205 100 49
42.930439 2.980704 104.318171 206 100 48
56.955255 10.297275 -104.736839 206 100 48
52.371920 -40.002175 126.789284 206 100 48
-353.301284 -46.222111 1925.122873 209 100 45
91.762517 -10.117868 -186.539317 206 100 48
-13.971298 10.599045 41.742003 206 100 48
24.421733 4.502558 203.222470 206 100 48
-665.787516 -148.158407 3256.362681 210 100 44
8.209674 9.825454 62.545664 206 100 48
2.875904 6.767609 26.263530 206 100 48
0.518000 0.230860 0.968688 206 100 48
30.461759 -1.032504 97.419320 206 100 48
0.350069 -47.645855 171.152191 206 100 48
50.222497 75.329914 -321.294024 205 100 49
23.923385 -32.921886 118.479540 206 100 48
37.192888 -35.593363 113.113867 206 100 48
25.414621 15.009055 108.897571 206 100 48
86.140714 88.744897 -368.316756 205 100 49
37.192888 -35.593363 113.113867 206 100 48
0.350069 -47.645855 171.152191 206 100 48
23.923385 -32.921886 118.479540 206 100 48
86.140714 88.744897 -368.316756 205 100 49
175.457146 43.223537 -457.958178 205 100 49
50.222497 75.329914 -321.294024 205 100 49
10.050206 13.183835 59.831380 206 100 48
-0.329896 0.104480 -2.571392 206 100 48
16.941075 -1.659718 173.447493 206 100 48
94.071082 79.572628 -359.330841 205 100 49
36.025351 -35.241623 111.702642 206 100 48
27.778212 -26.876727 111.513486 206 100 48
7.085557 8.576562 47.029298 206 100 48
